<mxfile host="app.diagrams.net" modified="2023-08-04T04:42:35.150Z" agent="Mozilla/5.0 (Windows NT 10.0; Win64; x64) AppleWebKit/537.36 (KHTML, like Gecko) Chrome/115.0.0.0 Safari/537.36 Edg/115.0.1901.188" etag="PIxGjwJ85eSV7OsuuxXD" version="21.6.3" type="device">
  <diagram name="Page-1" id="5YdcjRZQRiXzyToV-Zeb">
    <mxGraphModel dx="880" dy="476" grid="0" gridSize="10" guides="1" tooltips="1" connect="1" arrows="1" fold="1" page="1" pageScale="1" pageWidth="1169" pageHeight="827" math="0" shadow="0">
      <root>
        <mxCell id="0" />
        <mxCell id="1" parent="0" />
        <mxCell id="2N-8wMM0QVqp6UbpbZlt-1" value="Blogging&amp;nbsp;&lt;br&gt;System" style="shape=module;align=left;spacingLeft=20;align=center;verticalAlign=top;whiteSpace=wrap;html=1;strokeWidth=1;shadow=1;" parent="1" vertex="1">
          <mxGeometry x="24" y="252" width="100" height="50" as="geometry" />
        </mxCell>
        <mxCell id="2N-8wMM0QVqp6UbpbZlt-2" value="&lt;br&gt;Blog" style="shape=module;align=left;spacingLeft=20;align=center;verticalAlign=top;whiteSpace=wrap;html=1;strokeWidth=1;shadow=1;" parent="1" vertex="1">
          <mxGeometry x="238" y="90" width="100" height="62" as="geometry" />
        </mxCell>
        <mxCell id="2N-8wMM0QVqp6UbpbZlt-3" value="&lt;br&gt;Category&amp;nbsp;" style="shape=module;align=left;spacingLeft=20;align=center;verticalAlign=top;whiteSpace=wrap;html=1;strokeWidth=1;shadow=1;" parent="1" vertex="1">
          <mxGeometry x="238" y="167" width="100" height="61" as="geometry" />
        </mxCell>
        <mxCell id="2N-8wMM0QVqp6UbpbZlt-4" value="&lt;br&gt;comment" style="shape=module;align=left;spacingLeft=20;align=center;verticalAlign=top;whiteSpace=wrap;html=1;strokeWidth=1;shadow=1;" parent="1" vertex="1">
          <mxGeometry x="238" y="256" width="100" height="58" as="geometry" />
        </mxCell>
        <mxCell id="2N-8wMM0QVqp6UbpbZlt-5" value="User&lt;br&gt;Manage" style="shape=module;align=left;spacingLeft=20;align=center;verticalAlign=top;whiteSpace=wrap;html=1;strokeWidth=1;shadow=1;" parent="1" vertex="1">
          <mxGeometry x="240" y="345" width="100" height="59" as="geometry" />
        </mxCell>
        <mxCell id="2N-8wMM0QVqp6UbpbZlt-6" value="&lt;br&gt;Web Page" style="shape=module;align=left;spacingLeft=20;align=center;verticalAlign=top;whiteSpace=wrap;html=1;strokeWidth=1;shadow=1;" parent="1" vertex="1">
          <mxGeometry x="238" y="439" width="100" height="58" as="geometry" />
        </mxCell>
        <mxCell id="2N-8wMM0QVqp6UbpbZlt-11" value="" style="html=1;verticalAlign=bottom;endArrow=open;dashed=1;endSize=8;edgeStyle=elbowEdgeStyle;elbow=vertical;curved=0;rounded=0;strokeWidth=1;shadow=1;" parent="1" edge="1">
          <mxGeometry relative="1" as="geometry">
            <mxPoint x="169" y="447" as="sourcePoint" />
            <mxPoint x="237" y="105" as="targetPoint" />
            <Array as="points">
              <mxPoint x="133" y="105" />
            </Array>
          </mxGeometry>
        </mxCell>
        <mxCell id="2N-8wMM0QVqp6UbpbZlt-12" value="" style="html=1;verticalAlign=bottom;endArrow=open;dashed=1;endSize=8;edgeStyle=elbowEdgeStyle;elbow=vertical;curved=0;rounded=0;strokeWidth=1;shadow=1;" parent="1" edge="1">
          <mxGeometry relative="1" as="geometry">
            <mxPoint x="169" y="447" as="sourcePoint" />
            <mxPoint x="235" y="455" as="targetPoint" />
            <Array as="points">
              <mxPoint x="125" y="455" />
            </Array>
          </mxGeometry>
        </mxCell>
        <mxCell id="2N-8wMM0QVqp6UbpbZlt-13" value="" style="html=1;verticalAlign=bottom;endArrow=open;dashed=1;endSize=8;edgeStyle=elbowEdgeStyle;elbow=vertical;curved=0;rounded=0;strokeWidth=1;shadow=1;" parent="1" edge="1">
          <mxGeometry relative="1" as="geometry">
            <mxPoint x="172" y="352" as="sourcePoint" />
            <mxPoint x="238" y="360" as="targetPoint" />
            <Array as="points">
              <mxPoint x="128" y="360" />
            </Array>
          </mxGeometry>
        </mxCell>
        <mxCell id="2N-8wMM0QVqp6UbpbZlt-14" value="" style="html=1;verticalAlign=bottom;endArrow=open;dashed=1;endSize=8;edgeStyle=elbowEdgeStyle;elbow=vertical;curved=0;rounded=0;strokeWidth=1;shadow=1;" parent="1" edge="1">
          <mxGeometry relative="1" as="geometry">
            <mxPoint x="172" y="263" as="sourcePoint" />
            <mxPoint x="238" y="271" as="targetPoint" />
            <Array as="points">
              <mxPoint x="128" y="271" />
            </Array>
          </mxGeometry>
        </mxCell>
        <mxCell id="2N-8wMM0QVqp6UbpbZlt-15" value="" style="html=1;verticalAlign=bottom;endArrow=open;dashed=1;endSize=8;edgeStyle=elbowEdgeStyle;elbow=vertical;curved=0;rounded=0;strokeWidth=1;shadow=1;" parent="1" edge="1">
          <mxGeometry relative="1" as="geometry">
            <mxPoint x="171" y="173" as="sourcePoint" />
            <mxPoint x="237" y="181" as="targetPoint" />
            <Array as="points">
              <mxPoint x="127" y="181" />
            </Array>
          </mxGeometry>
        </mxCell>
        <mxCell id="2N-8wMM0QVqp6UbpbZlt-17" value="Data Access" style="html=1;verticalAlign=bottom;startArrow=oval;startFill=0;endArrow=open;startSize=6;endSize=8;edgeStyle=elbowEdgeStyle;elbow=vertical;curved=0;rounded=0;" parent="1" edge="1">
          <mxGeometry width="80" relative="1" as="geometry">
            <mxPoint x="178" y="127" as="sourcePoint" />
            <mxPoint x="233" y="127" as="targetPoint" />
          </mxGeometry>
        </mxCell>
        <mxCell id="2N-8wMM0QVqp6UbpbZlt-19" value="Data Access" style="html=1;verticalAlign=bottom;startArrow=oval;startFill=0;endArrow=open;startSize=6;endSize=8;edgeStyle=elbowEdgeStyle;elbow=vertical;curved=0;rounded=0;" parent="1" edge="1">
          <mxGeometry width="80" relative="1" as="geometry">
            <mxPoint x="181" y="202" as="sourcePoint" />
            <mxPoint x="236" y="202" as="targetPoint" />
          </mxGeometry>
        </mxCell>
        <mxCell id="2N-8wMM0QVqp6UbpbZlt-20" value="Data Access" style="html=1;verticalAlign=bottom;startArrow=oval;startFill=0;endArrow=open;startSize=6;endSize=8;edgeStyle=elbowEdgeStyle;elbow=vertical;curved=0;rounded=0;" parent="1" edge="1">
          <mxGeometry width="80" relative="1" as="geometry">
            <mxPoint x="184" y="290" as="sourcePoint" />
            <mxPoint x="239" y="290" as="targetPoint" />
          </mxGeometry>
        </mxCell>
        <mxCell id="2N-8wMM0QVqp6UbpbZlt-21" value="Data Access" style="html=1;verticalAlign=bottom;startArrow=oval;startFill=0;endArrow=open;startSize=6;endSize=8;edgeStyle=elbowEdgeStyle;elbow=vertical;curved=0;rounded=0;" parent="1" edge="1">
          <mxGeometry width="80" relative="1" as="geometry">
            <mxPoint x="183" y="380" as="sourcePoint" />
            <mxPoint x="238" y="380" as="targetPoint" />
          </mxGeometry>
        </mxCell>
        <mxCell id="2N-8wMM0QVqp6UbpbZlt-22" value="Data Access" style="html=1;verticalAlign=bottom;startArrow=oval;startFill=0;endArrow=open;startSize=6;endSize=8;edgeStyle=elbowEdgeStyle;elbow=vertical;curved=0;rounded=0;" parent="1" edge="1">
          <mxGeometry width="80" relative="1" as="geometry">
            <mxPoint x="179" y="474" as="sourcePoint" />
            <mxPoint x="234" y="474" as="targetPoint" />
          </mxGeometry>
        </mxCell>
        <mxCell id="2N-8wMM0QVqp6UbpbZlt-23" value="" style="html=1;verticalAlign=bottom;startArrow=oval;startFill=0;endArrow=open;startSize=6;endSize=8;edgeStyle=elbowEdgeStyle;elbow=vertical;curved=0;rounded=0;entryX=0.613;entryY=1.056;entryDx=0;entryDy=0;entryPerimeter=0;" parent="1" edge="1">
          <mxGeometry width="80" relative="1" as="geometry">
            <mxPoint x="73" y="360" as="sourcePoint" />
            <mxPoint x="73.29999999999995" y="304.79999999999995" as="targetPoint" />
            <Array as="points" />
          </mxGeometry>
        </mxCell>
        <mxCell id="2N-8wMM0QVqp6UbpbZlt-24" value="System Admin&lt;br&gt;of&amp;nbsp;&lt;br&gt;Bolgging Web App" style="text;html=1;align=center;verticalAlign=middle;resizable=0;points=[];autosize=1;strokeColor=none;fillColor=none;" parent="1" vertex="1">
          <mxGeometry x="16" y="359" width="117" height="55" as="geometry" />
        </mxCell>
        <mxCell id="2N-8wMM0QVqp6UbpbZlt-25" value="" style="endArrow=none;html=1;rounded=0;entryX=1.007;entryY=0.4;entryDx=0;entryDy=0;exitX=1;exitY=0.5;exitDx=0;exitDy=0;entryPerimeter=0;" parent="1" source="2N-8wMM0QVqp6UbpbZlt-6" target="2N-8wMM0QVqp6UbpbZlt-2" edge="1">
          <mxGeometry width="50" height="50" relative="1" as="geometry">
            <mxPoint x="409" y="485" as="sourcePoint" />
            <mxPoint x="393" y="106" as="targetPoint" />
            <Array as="points">
              <mxPoint x="424" y="468" />
              <mxPoint x="421" y="115" />
            </Array>
          </mxGeometry>
        </mxCell>
        <mxCell id="2N-8wMM0QVqp6UbpbZlt-26" value="" style="endArrow=none;html=1;rounded=0;exitX=1;exitY=0.5;exitDx=0;exitDy=0;" parent="1" source="2N-8wMM0QVqp6UbpbZlt-3" edge="1">
          <mxGeometry width="50" height="50" relative="1" as="geometry">
            <mxPoint x="306" y="292" as="sourcePoint" />
            <mxPoint x="423" y="198" as="targetPoint" />
          </mxGeometry>
        </mxCell>
        <mxCell id="2N-8wMM0QVqp6UbpbZlt-27" value="" style="endArrow=none;html=1;rounded=0;exitX=1;exitY=0.5;exitDx=0;exitDy=0;" parent="1" edge="1">
          <mxGeometry width="50" height="50" relative="1" as="geometry">
            <mxPoint x="337" y="286" as="sourcePoint" />
            <mxPoint x="422" y="286" as="targetPoint" />
          </mxGeometry>
        </mxCell>
        <mxCell id="2N-8wMM0QVqp6UbpbZlt-28" value="" style="endArrow=none;html=1;rounded=0;exitX=1;exitY=0.5;exitDx=0;exitDy=0;" parent="1" edge="1">
          <mxGeometry width="50" height="50" relative="1" as="geometry">
            <mxPoint x="339" y="373" as="sourcePoint" />
            <mxPoint x="424" y="373" as="targetPoint" />
          </mxGeometry>
        </mxCell>
        <mxCell id="2N-8wMM0QVqp6UbpbZlt-35" value="" style="rounded=0;orthogonalLoop=1;jettySize=auto;html=1;endArrow=none;endFill=0;sketch=0;sourcePerimeterSpacing=0;targetPerimeterSpacing=0;" parent="1" edge="1">
          <mxGeometry relative="1" as="geometry">
            <mxPoint x="425" y="207" as="sourcePoint" />
            <mxPoint x="469" y="207" as="targetPoint" />
          </mxGeometry>
        </mxCell>
        <mxCell id="2N-8wMM0QVqp6UbpbZlt-36" value="" style="rounded=0;orthogonalLoop=1;jettySize=auto;html=1;endArrow=halfCircle;endFill=0;endSize=6;strokeWidth=1;sketch=0;" parent="1" edge="1">
          <mxGeometry relative="1" as="geometry">
            <mxPoint x="543" y="207" as="sourcePoint" />
            <mxPoint x="479" y="207" as="targetPoint" />
          </mxGeometry>
        </mxCell>
        <mxCell id="2N-8wMM0QVqp6UbpbZlt-37" value="" style="ellipse;whiteSpace=wrap;html=1;align=center;aspect=fixed;resizable=0;points=[];outlineConnect=0;sketch=0;" parent="1" vertex="1">
          <mxGeometry x="470" y="202" width="10" height="10" as="geometry" />
        </mxCell>
        <mxCell id="2N-8wMM0QVqp6UbpbZlt-38" value="" style="rounded=0;orthogonalLoop=1;jettySize=auto;html=1;endArrow=none;endFill=0;sketch=0;sourcePerimeterSpacing=0;targetPerimeterSpacing=0;" parent="1" target="2N-8wMM0QVqp6UbpbZlt-40" edge="1">
          <mxGeometry relative="1" as="geometry">
            <mxPoint x="423" y="308" as="sourcePoint" />
          </mxGeometry>
        </mxCell>
        <mxCell id="2N-8wMM0QVqp6UbpbZlt-39" value="" style="rounded=0;orthogonalLoop=1;jettySize=auto;html=1;endArrow=halfCircle;endFill=0;endSize=6;strokeWidth=1;sketch=0;" parent="1" target="2N-8wMM0QVqp6UbpbZlt-40" edge="1">
          <mxGeometry relative="1" as="geometry">
            <mxPoint x="541" y="308" as="sourcePoint" />
            <mxPoint x="473" y="308" as="targetPoint" />
          </mxGeometry>
        </mxCell>
        <mxCell id="2N-8wMM0QVqp6UbpbZlt-40" value="" style="ellipse;whiteSpace=wrap;html=1;align=center;aspect=fixed;resizable=0;points=[];outlineConnect=0;sketch=0;" parent="1" vertex="1">
          <mxGeometry x="467" y="303" width="10" height="10" as="geometry" />
        </mxCell>
        <mxCell id="2N-8wMM0QVqp6UbpbZlt-41" value="" style="rounded=0;orthogonalLoop=1;jettySize=auto;html=1;endArrow=none;endFill=0;sketch=0;sourcePerimeterSpacing=0;targetPerimeterSpacing=0;" parent="1" target="2N-8wMM0QVqp6UbpbZlt-43" edge="1">
          <mxGeometry relative="1" as="geometry">
            <mxPoint x="424" y="332" as="sourcePoint" />
          </mxGeometry>
        </mxCell>
        <mxCell id="2N-8wMM0QVqp6UbpbZlt-42" value="" style="rounded=0;orthogonalLoop=1;jettySize=auto;html=1;endArrow=halfCircle;endFill=0;endSize=6;strokeWidth=1;sketch=0;" parent="1" target="2N-8wMM0QVqp6UbpbZlt-43" edge="1">
          <mxGeometry relative="1" as="geometry">
            <mxPoint x="542" y="332" as="sourcePoint" />
            <mxPoint x="474" y="332" as="targetPoint" />
          </mxGeometry>
        </mxCell>
        <mxCell id="2N-8wMM0QVqp6UbpbZlt-43" value="" style="ellipse;whiteSpace=wrap;html=1;align=center;aspect=fixed;resizable=0;points=[];outlineConnect=0;sketch=0;" parent="1" vertex="1">
          <mxGeometry x="468" y="327" width="10" height="10" as="geometry" />
        </mxCell>
        <mxCell id="2N-8wMM0QVqp6UbpbZlt-44" value="JWT&amp;nbsp;&lt;br&gt;Security" style="shape=module;align=left;spacingLeft=20;align=center;verticalAlign=top;whiteSpace=wrap;html=1;strokeWidth=1;shadow=1;" parent="1" vertex="1">
          <mxGeometry x="545" y="172" width="100" height="62" as="geometry" />
        </mxCell>
        <mxCell id="2N-8wMM0QVqp6UbpbZlt-45" value="&lt;br&gt;Persistance" style="shape=module;align=left;spacingLeft=20;align=center;verticalAlign=top;whiteSpace=wrap;html=1;strokeWidth=1;shadow=1;" parent="1" vertex="1">
          <mxGeometry x="543" y="294" width="100" height="62" as="geometry" />
        </mxCell>
        <mxCell id="2N-8wMM0QVqp6UbpbZlt-47" value="Access control" style="text;html=1;align=center;verticalAlign=middle;resizable=0;points=[];autosize=1;strokeColor=none;fillColor=none;" parent="1" vertex="1">
          <mxGeometry x="434" y="208" width="96" height="26" as="geometry" />
        </mxCell>
        <mxCell id="2N-8wMM0QVqp6UbpbZlt-48" value="Encryption" style="text;html=1;align=center;verticalAlign=middle;resizable=0;points=[];autosize=1;strokeColor=none;fillColor=none;" parent="1" vertex="1">
          <mxGeometry x="452" y="272" width="75" height="26" as="geometry" />
        </mxCell>
        <mxCell id="2N-8wMM0QVqp6UbpbZlt-49" value="Access control" style="text;html=1;align=center;verticalAlign=middle;resizable=0;points=[];autosize=1;strokeColor=none;fillColor=none;" parent="1" vertex="1">
          <mxGeometry x="440" y="336" width="96" height="26" as="geometry" />
        </mxCell>
        <mxCell id="2N-8wMM0QVqp6UbpbZlt-50" value="&lt;br&gt;DataBase" style="shape=module;align=left;spacingLeft=20;align=center;verticalAlign=top;whiteSpace=wrap;html=1;strokeWidth=1;shadow=1;" parent="1" vertex="1">
          <mxGeometry x="463" y="433" width="100" height="62" as="geometry" />
        </mxCell>
        <mxCell id="2N-8wMM0QVqp6UbpbZlt-52" value="" style="rounded=0;orthogonalLoop=1;jettySize=auto;html=1;endArrow=none;endFill=0;sketch=0;sourcePerimeterSpacing=0;targetPerimeterSpacing=0;exitX=1;exitY=0.5;exitDx=0;exitDy=0;" parent="1" source="2N-8wMM0QVqp6UbpbZlt-45" target="2N-8wMM0QVqp6UbpbZlt-54" edge="1">
          <mxGeometry relative="1" as="geometry">
            <mxPoint x="646" y="343" as="sourcePoint" />
            <Array as="points">
              <mxPoint x="708" y="325" />
              <mxPoint x="708" y="464" />
            </Array>
          </mxGeometry>
        </mxCell>
        <mxCell id="2N-8wMM0QVqp6UbpbZlt-53" value="" style="rounded=0;orthogonalLoop=1;jettySize=auto;html=1;endArrow=halfCircle;endFill=0;endSize=6;strokeWidth=1;sketch=0;" parent="1" edge="1">
          <mxGeometry relative="1" as="geometry">
            <mxPoint x="564" y="465" as="sourcePoint" />
            <mxPoint x="626" y="465" as="targetPoint" />
          </mxGeometry>
        </mxCell>
        <mxCell id="2N-8wMM0QVqp6UbpbZlt-54" value="" style="ellipse;whiteSpace=wrap;html=1;align=center;aspect=fixed;resizable=0;points=[];outlineConnect=0;sketch=0;" parent="1" vertex="1">
          <mxGeometry x="625" y="459" width="10" height="10" as="geometry" />
        </mxCell>
        <mxCell id="2N-8wMM0QVqp6UbpbZlt-55" value="Database Connector" style="text;html=1;align=center;verticalAlign=middle;resizable=0;points=[];autosize=1;strokeColor=none;fillColor=none;" parent="1" vertex="1">
          <mxGeometry x="571" y="429" width="128" height="26" as="geometry" />
        </mxCell>
        <mxCell id="2N-8wMM0QVqp6UbpbZlt-58" value="" style="rounded=0;orthogonalLoop=1;jettySize=auto;html=1;endArrow=none;endFill=0;sketch=0;sourcePerimeterSpacing=0;targetPerimeterSpacing=0;" parent="1" target="2N-8wMM0QVqp6UbpbZlt-60" edge="1">
          <mxGeometry relative="1" as="geometry">
            <mxPoint x="421" y="186" as="sourcePoint" />
          </mxGeometry>
        </mxCell>
        <mxCell id="2N-8wMM0QVqp6UbpbZlt-59" value="" style="rounded=0;orthogonalLoop=1;jettySize=auto;html=1;endArrow=halfCircle;endFill=0;endSize=6;strokeWidth=1;sketch=0;" parent="1" target="2N-8wMM0QVqp6UbpbZlt-60" edge="1">
          <mxGeometry relative="1" as="geometry">
            <mxPoint x="544" y="186" as="sourcePoint" />
            <mxPoint x="476" y="186" as="targetPoint" />
          </mxGeometry>
        </mxCell>
        <mxCell id="2N-8wMM0QVqp6UbpbZlt-60" value="" style="ellipse;whiteSpace=wrap;html=1;align=center;aspect=fixed;resizable=0;points=[];outlineConnect=0;sketch=0;" parent="1" vertex="1">
          <mxGeometry x="470" y="181" width="10" height="10" as="geometry" />
        </mxCell>
        <mxCell id="2N-8wMM0QVqp6UbpbZlt-61" value="Encryption" style="text;html=1;align=center;verticalAlign=middle;resizable=0;points=[];autosize=1;strokeColor=none;fillColor=none;" parent="1" vertex="1">
          <mxGeometry x="455" y="150" width="75" height="26" as="geometry" />
        </mxCell>
      </root>
    </mxGraphModel>
  </diagram>
</mxfile>
